<?xml version="1.0" encoding="UTF-8"?>
<svg xmlns="http://www.w3.org/2000/svg" xmlns:xlink="http://www.w3.org/1999/xlink" width="64pt" height="64pt" viewBox="0 0 64 64" version="1.1">
<g id="surface3043819">
<path style=" stroke:none;fill-rule:nonzero;fill:rgb(100%,100%,100%);fill-opacity:1;" d="M 32 3 C 24.25 3 16.949219 6 11.5 11.5 C 6 16.949219 3 24.25 3 32 C 3 39.75 6 47.050781 11.5 52.5 C 17 58 24.25 61 32 61 C 39.75 61 47.050781 58 52.5 52.5 C 58 47 61 39.75 61 32 C 61 24.25 58 16.949219 52.5 11.5 C 47.050781 6 39.75 3 32 3 Z M 32 6 C 38.949219 6 45.449219 8.699219 50.402344 13.597656 C 55.351562 18.5 58 25.050781 58 32 C 58 38.949219 55.300781 45.449219 50.402344 50.402344 C 45.449219 55.300781 38.949219 58 32 58 C 25.050781 58 18.550781 55.300781 13.597656 50.402344 C 8.648438 45.5 6 38.949219 6 32 C 6 25.050781 8.699219 18.550781 13.597656 13.597656 C 18.5 8.648438 25.050781 6 32 6 Z M 25.28125 23.75 C 24.898438 23.75 24.523438 23.898438 24.25 24.199219 C 23.648438 24.800781 23.648438 25.75 24.25 26.300781 L 29.902344 32 L 24.199219 37.652344 C 23.601562 38.25 23.601562 39.199219 24.199219 39.75 C 24.5 40.050781 24.898438 40.199219 25.25 40.199219 C 25.601562 40.199219 26 40.050781 26.300781 39.75 L 32 34.101562 L 37.652344 39.75 C 37.949219 40.050781 38.351562 40.199219 38.699219 40.199219 C 39.050781 40.199219 39.449219 40.050781 39.75 39.75 C 40.351562 39.148438 40.351562 38.199219 39.75 37.652344 L 34.101562 32 L 39.75 26.351562 C 40.351562 25.75 40.351562 24.800781 39.800781 24.199219 C 39.199219 23.601562 38.25 23.601562 37.699219 24.199219 L 32 29.902344 L 26.351562 24.199219 C 26.050781 23.898438 25.664062 23.75 25.28125 23.75 Z M 25.28125 23.75 "/>
</g>
</svg>
